<svg width="140" height="141" viewBox="0 0 140 141" fill="none" xmlns="http://www.w3.org/2000/svg">
<rect x="20" y="20" width="100" height="100.429" rx="30" fill="#FDE433"/>
<path fill-rule="evenodd" clip-rule="evenodd" d="M95 82.4286C95 88.5037 90.0751 93.4286 84 93.4286L56 93.4286C49.9249 93.4286 45 88.5037 45 82.4286L45 58C45 51.9249 49.9249 47 56 47L84 47C90.0751 47 95 51.9249 95 58L95 82.4286ZM85.4762 76.1429C85.4762 77.7997 84.133 79.1429 82.4762 79.1429L56.3333 79.1429C54.6765 79.1429 53.3333 77.7997 53.3333 76.1429L53.3333 58.3333C53.3333 56.6765 54.6765 55.3333 56.3333 55.3333L82.4762 55.3333C84.133 55.3333 85.4762 56.6765 85.4762 58.3333V76.1429ZM64.0476 83.5953C63.2192 83.5953 62.5476 84.2669 62.5476 85.0953C62.5476 85.9237 63.2192 86.5953 64.0476 86.5953H70.3501H75.9524C76.7808 86.5953 77.4524 85.9237 77.4524 85.0953C77.4524 84.2669 76.7808 83.5953 75.9524 83.5953H70.3501H64.0476Z" fill="#472122"/>
</svg>
