<svg width="16" height="16" viewBox="0 0 16 16" fill="none" xmlns="http://www.w3.org/2000/svg">
<path d="M4.7375 7.19375C4.95 7.19375 5.12813 7.12188 5.27188 6.97813C5.41563 6.83438 5.4875 6.65625 5.4875 6.44375C5.4875 6.23125 5.41563 6.05313 5.27188 5.90938C5.12813 5.76562 4.95 5.69375 4.7375 5.69375C4.525 5.69375 4.34688 5.76562 4.20313 5.90938C4.05938 6.05313 3.9875 6.23125 3.9875 6.44375C3.9875 6.65625 4.05938 6.83438 4.20313 6.97813C4.34688 7.12188 4.525 7.19375 4.7375 7.19375ZM8.05625 7.19375C8.26875 7.19375 8.44688 7.12188 8.59063 6.97813C8.73438 6.83438 8.80625 6.65625 8.80625 6.44375C8.80625 6.23125 8.73438 6.05313 8.59063 5.90938C8.44688 5.76562 8.26875 5.69375 8.05625 5.69375C7.84375 5.69375 7.66563 5.76562 7.52188 5.90938C7.37813 6.05313 7.30625 6.23125 7.30625 6.44375C7.30625 6.65625 7.37813 6.83438 7.52188 6.97813C7.66563 7.12188 7.84375 7.19375 8.05625 7.19375ZM11.2438 7.19375C11.4563 7.19375 11.6344 7.12188 11.7781 6.97813C11.9219 6.83438 11.9938 6.65625 11.9938 6.44375C11.9938 6.23125 11.9219 6.05313 11.7781 5.90938C11.6344 5.76562 11.4563 5.69375 11.2438 5.69375C11.0312 5.69375 10.8531 5.76562 10.7094 5.90938C10.5656 6.05313 10.4938 6.23125 10.4938 6.44375C10.4938 6.65625 10.5656 6.83438 10.7094 6.97813C10.8531 7.12188 11.0312 7.19375 11.2438 7.19375ZM0.5 15.5V0.5H15.5V12.5H3.5L0.5 15.5ZM1.625 11.375H14.375V1.625H1.625V11.375Z" fill="white"/>
</svg>
