<svg width="28" height="28" viewBox="0 0 28 28" fill="none" xmlns="http://www.w3.org/2000/svg">
<path d="M2.625 25.617H9.1875V16.8794C9.1875 16.5418 9.31328 16.2589 9.56484 16.0305C9.81641 15.8021 10.1281 15.6879 10.5 15.6879H17.5C17.8719 15.6879 18.1836 15.8021 18.4352 16.0305C18.6867 16.2589 18.8125 16.5418 18.8125 16.8794V25.617H25.375V10.1277L14 2.38298L2.625 10.1277V25.617ZM0 25.617V10.1277C0 9.75035 0.0929687 9.39291 0.278906 9.05532C0.464844 8.71773 0.721875 8.43972 1.05 8.22128L12.425 0.476596C12.8823 0.158865 13.405 0 13.993 0C14.581 0 15.1083 0.158865 15.575 0.476596L26.95 8.22128C27.2781 8.43972 27.5352 8.71773 27.7211 9.05532C27.907 9.39291 28 9.75035 28 10.1277V25.617C28 26.2723 27.743 26.8333 27.2289 27.3C26.7148 27.7667 26.0969 28 25.375 28H17.5C17.1281 28 16.8164 27.8858 16.5648 27.6574C16.3133 27.4291 16.1875 27.1461 16.1875 26.8085V18.0709H11.8125V26.8085C11.8125 27.1461 11.6867 27.4291 11.4352 27.6574C11.1836 27.8858 10.8719 28 10.5 28H2.625C1.90313 28 1.28516 27.7667 0.771094 27.3C0.257031 26.8333 0 26.2723 0 25.617Z" fill="#BBBBBB"/>
</svg>
