<svg width="17" height="16" viewBox="0 0 17 16" fill="none" xmlns="http://www.w3.org/2000/svg">
<path d="M8.33333 15.2708L7.47917 14.5C6.01017 13.1511 4.79569 11.9875 3.83575 11.0091C2.87581 10.0308 2.11111 9.15625 1.54167 8.38542C0.972222 7.61458 0.572917 6.91667 0.34375 6.29167C0.114583 5.66667 0 5.03472 0 4.39583C0 3.14368 0.420139 2.09801 1.26042 1.25881C2.10069 0.419604 3.13889 0 4.375 0C5.16667 0 5.89931 0.1875 6.57292 0.5625C7.24653 0.9375 7.83333 1.47917 8.33333 2.1875C8.91667 1.4375 9.53472 0.885417 10.1875 0.53125C10.8403 0.177083 11.5417 0 12.2917 0C13.5278 0 14.566 0.419604 15.4063 1.25881C16.2465 2.09801 16.6667 3.14368 16.6667 4.39583C16.6667 5.03472 16.5521 5.66667 16.3229 6.29167C16.0938 6.91667 15.6944 7.61458 15.125 8.38542C14.5556 9.15625 13.7909 10.0308 12.8309 11.0091C11.871 11.9875 10.6565 13.1511 9.1875 14.5L8.33333 15.2708ZM8.33333 13.625C9.73939 12.3334 10.8965 11.2258 11.8045 10.3021C12.7126 9.37849 13.434 8.56944 13.9688 7.875C14.5035 7.18056 14.8785 6.56156 15.0938 6.01802C15.309 5.47447 15.4167 4.93474 15.4167 4.39885C15.4167 3.48017 15.125 2.72569 14.5417 2.13542C13.9583 1.54514 13.2099 1.25 12.2964 1.25C11.5807 1.25 10.9184 1.46875 10.3094 1.90625C9.70035 2.34375 9.20833 2.95833 8.83333 3.75H7.8125C7.45139 2.97222 6.96632 2.36111 6.35729 1.91667C5.74825 1.47222 5.08592 1.25 4.37031 1.25C3.45677 1.25 2.70833 1.54514 2.125 2.13542C1.54167 2.72569 1.25 3.48136 1.25 4.40242C1.25 4.93969 1.35764 5.48264 1.57292 6.03125C1.78819 6.57986 2.16319 7.20486 2.69792 7.90625C3.23264 8.60764 3.95833 9.41667 4.875 10.3333C5.79167 11.25 6.94445 12.3472 8.33333 13.625Z" fill="#BBBBBB"/>
</svg>
