<svg width="20" height="3" viewBox="0 0 20 3" fill="none" xmlns="http://www.w3.org/2000/svg">
<path d="M1.49556 3C1.08185 3 0.729167 2.85269 0.4375 2.55806C0.145833 2.26346 0 1.90929 0 1.49556C0 1.08185 0.147312 0.729167 0.441937 0.4375C0.736542 0.145833 1.09071 0 1.50444 0C1.91815 0 2.27083 0.147313 2.5625 0.441938C2.85417 0.736543 3 1.09071 3 1.50444C3 1.91815 2.85269 2.27083 2.55806 2.5625C2.26346 2.85417 1.90929 3 1.49556 3ZM9.99556 3C9.58185 3 9.22917 2.85269 8.9375 2.55806C8.64583 2.26346 8.5 1.90929 8.5 1.49556C8.5 1.08185 8.64731 0.729167 8.94194 0.4375C9.23654 0.145833 9.59071 0 10.0044 0C10.4181 0 10.7708 0.147313 11.0625 0.441938C11.3542 0.736543 11.5 1.09071 11.5 1.50444C11.5 1.91815 11.3527 2.27083 11.0581 2.5625C10.7635 2.85417 10.4093 3 9.99556 3ZM18.4956 3C18.0819 3 17.7292 2.85269 17.4375 2.55806C17.1458 2.26346 17 1.90929 17 1.49556C17 1.08185 17.1473 0.729167 17.4419 0.4375C17.7365 0.145833 18.0907 0 18.5044 0C18.9181 0 19.2708 0.147313 19.5625 0.441938C19.8542 0.736543 20 1.09071 20 1.50444C20 1.91815 19.8527 2.27083 19.5581 2.5625C19.2635 2.85417 18.9093 3 18.4956 3Z" fill="white"/>
</svg>
