<svg width="24" height="24" viewBox="0 0 24 24" fill="none" xmlns="http://www.w3.org/2000/svg">
<path fill-rule="evenodd" clip-rule="evenodd" d="M24 17.1428C24 20.4565 21.3137 23.1428 18 23.1428L6 23.1428C2.68629 23.1428 2.09e-06 20.4565 2.31532e-06 17.1428L3.0147e-06 6.8571C3.24002e-06 3.54339 2.6863 0.857097 6 0.857098L18 0.857099C21.3137 0.857099 24 3.54339 24 6.8571L24 17.1428ZM19.4286 13.2857C19.4286 14.9426 18.0854 16.2857 16.4286 16.2857L7.00001 16.2857C5.34315 16.2857 4.00001 14.9426 4.00001 13.2857V7.85715C4.00001 6.2003 5.34315 4.85715 7.00001 4.85715L16.4286 4.85715C18.0854 4.85715 19.4286 6.2003 19.4286 7.85715V13.2857ZM9.14285 17.6429C8.31442 17.6429 7.64285 18.3144 7.64285 19.1429C7.64285 19.9713 8.31442 20.6429 9.14285 20.6429H12.1681H14.8571C15.6856 20.6429 16.3571 19.9713 16.3571 19.1429C16.3571 18.3144 15.6856 17.6429 14.8571 17.6429H12.1681H9.14285Z" fill="white"/>
</svg>
