<svg width="28" height="28" viewBox="0 0 28 28" fill="none" xmlns="http://www.w3.org/2000/svg">
<path d="M14 13.5266C12.075 13.5266 10.5 12.8953 9.275 11.6329C8.05 10.3704 7.4375 8.74718 7.4375 6.76329C7.4375 4.77939 8.05 3.1562 9.275 1.89372C10.5 0.63124 12.075 0 14 0C15.925 0 17.5 0.63124 18.725 1.89372C19.95 3.1562 20.5625 4.77939 20.5625 6.76329C20.5625 8.74718 19.95 10.3704 18.725 11.6329C17.5 12.8953 15.925 13.5266 14 13.5266ZM0 28V23.7617C0 22.6194 0.277083 21.6425 0.83125 20.8309C1.38542 20.0193 2.1 19.4031 2.975 18.9823C4.92917 18.0805 6.80312 17.4042 8.59688 16.9533C10.3906 16.5024 12.1917 16.277 14 16.277C15.8083 16.277 17.6021 16.5099 19.3813 16.9758C21.1604 17.4418 23.0259 18.1135 24.9778 18.991C25.8907 19.4156 26.6227 20.0313 27.1736 20.8381C27.7245 21.6449 28 22.6194 28 23.7617V28H0ZM2.625 25.2947H25.375V23.7617C25.375 23.2807 25.2365 22.8223 24.9594 22.3865C24.6823 21.9506 24.3396 21.6275 23.9312 21.4171C22.0646 20.4852 20.3583 19.8465 18.8125 19.5008C17.2667 19.1551 15.6625 18.9823 14 18.9823C12.3375 18.9823 10.7188 19.1551 9.14375 19.5008C7.56875 19.8465 5.8625 20.4852 4.025 21.4171C3.61667 21.6275 3.28125 21.9506 3.01875 22.3865C2.75625 22.8223 2.625 23.2807 2.625 23.7617V25.2947ZM14 10.8213C15.1375 10.8213 16.0781 10.438 16.8219 9.6715C17.5656 8.90499 17.9375 7.93559 17.9375 6.76329C17.9375 5.59098 17.5656 4.62158 16.8219 3.85507C16.0781 3.08857 15.1375 2.70531 14 2.70531C12.8625 2.70531 11.9219 3.08857 11.1781 3.85507C10.4344 4.62158 10.0625 5.59098 10.0625 6.76329C10.0625 7.93559 10.4344 8.90499 11.1781 9.6715C11.9219 10.438 12.8625 10.8213 14 10.8213Z" fill="#BBBBBB"/>
</svg>
