<svg width="44" height="20" viewBox="0 0 44 20" fill="none" xmlns="http://www.w3.org/2000/svg">
<rect x="0.5" y="0.5" width="43" height="19" rx="9.5" stroke="white"/>
<path d="M12.127 14V5.54492H13.8965V8.97852H17.7051V5.54492H19.4746V14H17.7051V10.4375H13.8965V14H12.127ZM24.2207 14.1348C23.5605 14.1348 22.9922 14.002 22.5156 13.7363C22.0391 13.4668 21.6738 13.082 21.4199 12.582C21.166 12.0781 21.0391 11.4766 21.0391 10.7773V10.7656C21.0391 10.0703 21.168 9.47266 21.4258 8.97266C21.6836 8.47266 22.0488 8.08789 22.5215 7.81836C22.998 7.54492 23.5645 7.4082 24.2207 7.4082C24.877 7.4082 25.4414 7.54297 25.9141 7.8125C26.3906 8.08203 26.7578 8.46875 27.0156 8.97266C27.2734 9.47266 27.4023 10.0703 27.4023 10.7656V10.7773C27.4023 11.4766 27.2754 12.0781 27.0215 12.582C26.7676 13.082 26.4023 13.4668 25.9258 13.7363C25.4531 14.002 24.8848 14.1348 24.2207 14.1348ZM24.2207 12.793C24.5254 12.793 24.7832 12.7129 24.9941 12.5527C25.2051 12.3926 25.3672 12.1621 25.4805 11.8613C25.5938 11.5605 25.6504 11.1992 25.6504 10.7773V10.7656C25.6504 10.3438 25.5938 9.98438 25.4805 9.6875C25.3672 9.38672 25.2031 9.15625 24.9883 8.99609C24.7773 8.83203 24.5215 8.75 24.2207 8.75C23.9199 8.75 23.6621 8.83203 23.4473 8.99609C23.2363 9.15625 23.0742 9.38672 22.9609 9.6875C22.8477 9.98438 22.791 10.3438 22.791 10.7656V10.7773C22.791 11.2031 22.8457 11.5664 22.9551 11.8672C23.0684 12.168 23.2305 12.3984 23.4414 12.5586C23.6562 12.7148 23.916 12.793 24.2207 12.793ZM31.4746 14.0234C30.6934 14.0234 30.1309 13.8867 29.7871 13.6133C29.4434 13.3359 29.2715 12.8848 29.2715 12.2598V8.83789H28.2754V7.54883H29.2715V6.00781H31V7.54883H32.3301V8.83789H31V11.8672C31 12.1562 31.0645 12.3691 31.1934 12.5059C31.3262 12.6387 31.5371 12.7051 31.8262 12.7051C31.9355 12.7051 32.0254 12.7031 32.0957 12.6992C32.1699 12.6914 32.248 12.6836 32.3301 12.6758V13.9473C32.2246 13.9668 32.0977 13.9844 31.9492 14C31.8008 14.0156 31.6426 14.0234 31.4746 14.0234Z" fill="white"/>
</svg>
