<svg width="29" height="28" viewBox="0 0 29 28" fill="none" xmlns="http://www.w3.org/2000/svg">
<path d="M14.4283 13.5266C12.4444 13.5266 10.8213 12.8953 9.55878 11.6329C8.2963 10.3704 7.66506 8.74718 7.66506 6.76328C7.66506 4.77939 8.2963 3.1562 9.55878 1.89372C10.8213 0.63124 12.4444 0 14.4283 0C16.4122 0 18.0354 0.63124 19.2979 1.89372C20.5604 3.1562 21.1916 4.77939 21.1916 6.76328C21.1916 8.74718 20.5604 10.3704 19.2979 11.6329C18.0354 12.8953 16.4122 13.5266 14.4283 13.5266ZM0 28V23.7617C0 22.6194 0.285561 21.6425 0.856683 20.8309C1.4278 20.0193 2.16425 19.4031 3.06602 18.9823C5.07998 18.0805 7.01127 17.4042 8.8599 16.9533C10.7085 16.5024 12.5647 16.277 14.4283 16.277C16.292 16.277 18.1406 16.5099 19.9742 16.9758C21.8078 17.4418 23.7316 18.1106 25.7456 18.9823C26.6774 19.4031 27.4289 20.0193 28 20.8309C28.5711 21.6425 28.8567 22.6194 28.8567 23.7617V28H0Z" fill="white"/>
</svg>
