<svg width="15" height="17" viewBox="0 0 15 17" fill="none" xmlns="http://www.w3.org/2000/svg">
<path fill-rule="evenodd" clip-rule="evenodd" d="M7.70791 0.42C7.70791 0.18804 7.51987 0 7.28791 0C7.05595 0 6.86791 0.18804 6.86791 0.42V3.45333L3.3679 3.45333C1.66687 3.45333 0.287903 4.83229 0.287903 6.53333V13.3733C0.287903 15.0744 1.66687 16.4533 3.3679 16.4533H11.2079C12.9089 16.4533 14.2879 15.0744 14.2879 13.3733L14.2879 6.53333C14.2879 4.8323 12.9089 3.45333 11.2079 3.45333L7.70791 3.45333V0.42ZM10.7812 12.4533C11.2451 12.4533 11.6212 12.0773 11.6212 11.6133V6.62667C11.6212 6.16275 11.2452 5.78667 10.7812 5.78667L3.46123 5.78667C2.99731 5.78667 2.62123 6.16275 2.62123 6.62667L2.62123 11.6133C2.62123 12.0773 2.99731 12.4533 3.46123 12.4533L10.7812 12.4533ZM5.20124 14.12C5.20124 13.8881 5.38928 13.7 5.62124 13.7H7.38594H8.95457C9.18653 13.7 9.37457 13.8881 9.37457 14.12C9.37457 14.352 9.18653 14.54 8.95457 14.54H7.38594H5.62124C5.38928 14.54 5.20124 14.352 5.20124 14.12Z" fill="#BBBBBB"/>
</svg>
