<svg width="28" height="28" viewBox="0 0 28 28" fill="none" xmlns="http://www.w3.org/2000/svg">
<path d="M0 25.617V10.1277C0 9.75035 0.0929687 9.39291 0.278906 9.05532C0.464844 8.71773 0.721875 8.43972 1.05 8.22128L12.425 0.476596C12.8823 0.158865 13.405 0 13.993 0C14.581 0 15.1083 0.158865 15.575 0.476596L26.95 8.22128C27.2781 8.43972 27.5352 8.71773 27.7211 9.05532C27.907 9.39291 28 9.75035 28 10.1277V25.617C28 26.2723 27.743 26.8333 27.2289 27.3C26.7148 27.7667 26.0969 28 25.375 28H18.8125C18.4406 28 18.1289 27.8858 17.8773 27.6574C17.6258 27.4291 17.5 27.1461 17.5 26.8085V18.0709C17.5 17.7333 17.3742 17.4504 17.1227 17.222C16.8711 16.9936 16.5594 16.8794 16.1875 16.8794H11.8125C11.4406 16.8794 11.1289 16.9936 10.8773 17.222C10.6258 17.4504 10.5 17.7333 10.5 18.0709V26.8085C10.5 27.1461 10.3742 27.4291 10.1227 27.6574C9.87109 27.8858 9.55937 28 9.1875 28H2.625C1.90313 28 1.28516 27.7667 0.771094 27.3C0.257031 26.8333 0 26.2723 0 25.617Z" fill="white"/>
</svg>
